<?xml version="1.0" encoding="utf-8"?>
<!-- Generator: Adobe Illustrator 26.4.0, SVG Export Plug-In . SVG Version: 6.00 Build 0)  -->
<svg version="1.1" id="Ebene_1" xmlns="http://www.w3.org/2000/svg" xmlns:xlink="http://www.w3.org/1999/xlink" x="0px" y="0px"
	 width="53px" height="34px" viewBox="0 0 53 34" style="enable-background:new 0 0 53 34;" xml:space="preserve">
<style type="text/css">
	.st0{fill:#006FCF;}
	.st1{fill:#FFFFFF;}
</style>
<path class="st0" d="M6,0h41c3.3,0,6,2.7,6,6v22c0,3.3-2.7,6-6,6H6c-3.3,0-6-2.7-6-6V6C0,2.7,2.7,0,6,0z"/>
<polygon class="st1" points="35.4,11.3 34.7,13.1 36.2,13.1 "/>
<polygon class="st1" points="9.6,11.3 8.9,13.1 10.3,13.1 "/>
<path class="st1" d="M26.7,11.6c-0.2-0.1-0.3-0.1-0.5-0.1h-1.3v1h1.3c0.2,0,0.4,0,0.5-0.1c0.1-0.1,0.2-0.3,0.2-0.4
	C27,11.8,26.9,11.7,26.7,11.6z"/>
<path class="st1" d="M31.4,19.4c-0.2-0.1-0.3-0.1-0.5-0.1h-1.3v1h1.3c0.2,0,0.4,0,0.5-0.1c0.1-0.1,0.2-0.3,0.2-0.4
	C31.6,19.7,31.5,19.5,31.4,19.4z"/>
<path class="st1" d="M26.1,19.3h-1.4v1.2h1.4c0.4,0,0.7-0.2,0.7-0.6S26.5,19.3,26.1,19.3z"/>
<path class="st1" d="M46.2,20C46.2,20,46.2,20,46.2,20c0.2-0.2,0.3-0.4,0.3-0.6v-1c0-0.4-0.3-0.8-0.7-0.8c0,0,0,0,0,0h-2.2
	c-0.6,0-1.1,0.2-1.6,0.5c-0.1-0.3-0.4-0.5-0.7-0.5h-2.2c-0.5,0-1,0.1-1.4,0.4c-0.1-0.2-0.4-0.4-0.6-0.4h-3.6c-0.3,0-0.5,0.2-0.7,0.4
	c-0.1,0-0.1-0.1-0.1-0.1c-0.5-0.2-1.1-0.3-1.7-0.3h-2.5c-0.3,0-0.5,0.2-0.7,0.4c-0.5-0.3-1.1-0.4-1.7-0.4h-3.5
	c-0.2,0-0.4,0.1-0.6,0.2l-0.8,0.9l-0.8-0.9c-0.1-0.2-0.3-0.3-0.6-0.2h-4.4c-0.4,0-0.8,0.3-0.8,0.8l0,0V23c0,0.4,0.3,0.8,0.8,0.8
	c0,0,0,0,0,0h4.3c0.2,0,0.4-0.1,0.6-0.2l0.8-0.9l0.8,0.9c0.1,0.2,0.3,0.3,0.6,0.3h2.1c0.4,0,0.8-0.3,0.8-0.8v-0.8H26
	c0.6,0,1.1-0.1,1.7-0.4V23c0,0.4,0.3,0.8,0.8,0.8h1.1c0.4,0,0.8-0.3,0.8-0.8c0,0,0,0,0,0V22h0.4c0.1,0,0.2,0,0.2,0
	c0,0.1,0,0.2,0,0.2V23c0,0.4,0.3,0.8,0.8,0.8h1.1c0.1,0,0.2,0,0.3-0.1c0.1,0.1,0.2,0.1,0.3,0.1h3.6c0.1,0,0.2,0,0.3-0.1
	c0.1,0.1,0.2,0.1,0.3,0.1h2.1c0.6,0,1.2-0.1,1.6-0.5c0.1,0.3,0.4,0.5,0.7,0.5h2.1c1.5,0,2.5-0.8,2.5-2.2C46.8,21,46.6,20.4,46.2,20z
	 M26,21.4h-1.4v1.5h-2.1l-1.3-1.5l-1.4,1.5h-4.3v-4.6h4.4l1.3,1.5l1.4-1.5h3.5c0.9,0,1.8,0.2,1.8,1.5S27,21.4,26,21.4L26,21.4z
	 M32.1,20.8c0.2,0.1,0.4,0.2,0.5,0.4c0.1,0.2,0.2,0.5,0.2,0.8v0.9h-1.1v-0.6c0-0.3,0-0.7-0.2-0.9c-0.2-0.2-0.4-0.2-0.8-0.2h-1.2v1.7
	h-1.1v-4.6H31c0.4,0,0.9,0,1.3,0.2c0.4,0.2,0.6,0.6,0.6,1C32.8,20.1,32.5,20.6,32.1,20.8L32.1,20.8z M37.1,19.3h-2.5v0.8H37v0.9
	h-2.5V22h2.5v0.9h-3.6v-4.6h3.6L37.1,19.3z M39.8,22.9h-2.1v-1h2.1c0.2,0,0.3,0,0.4-0.1c0.1-0.1,0.1-0.2,0.1-0.3
	c0-0.1,0-0.2-0.1-0.3c-0.1-0.1-0.3-0.1-0.4-0.1c-1,0-2.3,0-2.3-1.4c0-0.7,0.4-1.4,1.6-1.4h2.2v1h-2c-0.2,0-0.3,0-0.4,0.1
	c-0.2,0.1-0.2,0.4-0.1,0.5c0,0.1,0.1,0.1,0.2,0.1c0.1,0,0.3,0.1,0.4,0.1l0.6,0c0.4,0,0.9,0.1,1.2,0.4c0.2,0.3,0.4,0.6,0.3,1
	C41.5,22.5,40.9,22.9,39.8,22.9L39.8,22.9z M44.3,22.9h-2.1v-1h2.1c0.2,0,0.3,0,0.4-0.1c0.1-0.1,0.1-0.2,0.1-0.3
	c0-0.1,0-0.2-0.1-0.3c-0.1-0.1-0.3-0.1-0.4-0.1c-1,0-2.3,0-2.3-1.4c0-0.7,0.4-1.4,1.6-1.4h2.2v1h-2c-0.2,0-0.3,0-0.4,0.1
	c-0.2,0.1-0.2,0.4-0.1,0.5c0,0.1,0.1,0.1,0.2,0.1c0.1,0,0.3,0.1,0.4,0.1l0.6,0c0.4,0,0.9,0.1,1.2,0.4c0.2,0.3,0.4,0.6,0.3,1
	C46,22.5,45.4,22.9,44.3,22.9L44.3,22.9z"/>
<path class="st1" d="M42.8,9.8h-1.1c-0.4,0-0.8,0.3-0.8,0.8V11l-0.5-0.9c-0.1-0.2-0.4-0.4-0.6-0.4h-1.7c-0.4,0-0.8,0.3-0.8,0.8v0.6
	l-0.4-0.9c-0.1-0.3-0.4-0.5-0.7-0.5h-1.6c-0.2,0-0.3,0.1-0.4,0.1c-0.1-0.1-0.3-0.2-0.5-0.1h-1.1c-0.7,0-1.5,0.2-2,0.6
	c-0.1-0.4-0.4-0.6-0.7-0.6h-1.1c-0.3,0-0.5,0.2-0.7,0.4c0,0-0.1-0.1-0.1-0.1c-0.5-0.3-1.1-0.4-1.7-0.3h-2.5c-0.1,0-0.3,0-0.4,0.1
	c-0.1-0.1-0.2-0.1-0.4-0.1h-3.6c-0.1,0-0.3,0.1-0.4,0.1c-0.1-0.1-0.3-0.1-0.4-0.1h-1.8c-0.3,0-0.6,0.2-0.7,0.5l-0.6,1.5l-0.7-1.5
	C14.6,10,14.3,9.8,14,9.8h-1.8c-0.4,0-0.8,0.3-0.8,0.8v0.7l-0.4-1C11,10,10.7,9.8,10.4,9.8H8.8c-0.3,0-0.6,0.2-0.7,0.5l-1.9,4.5
	c-0.2,0.4,0,0.8,0.4,1c0.1,0,0.2,0.1,0.3,0.1H8c0.3,0,0.6-0.2,0.7-0.5L9,14.8h1.3l0.2,0.6c0.1,0.3,0.4,0.5,0.7,0.5h2.2
	c0.4,0,0.8-0.3,0.8-0.8v0l0.1,0.3c0.1,0.3,0.4,0.4,0.7,0.4h1c0.3,0,0.6-0.2,0.7-0.4l0.1-0.3v0c0,0.4,0.3,0.8,0.8,0.8c0,0,0,0,0,0
	h1.1c0.1,0,0.3,0,0.4-0.1c0.1,0.1,0.3,0.1,0.4,0.1H23c0.1,0,0.3,0,0.4-0.1c0.1,0.1,0.2,0.1,0.4,0.1h1.1c0.4,0,0.8-0.3,0.8-0.8v-0.9
	H26c0.1,0,0.2,0,0.2,0c0,0.1,0,0.2,0,0.2v0.1v0.6c0,0.4,0.3,0.7,0.8,0.7h1.1c0.1,0,0.2,0,0.3-0.1c0.1,0.1,0.2,0.1,0.3,0.1h1.1
	c0.4,0,0.7-0.3,0.7-0.6c0.6,0.4,1.3,0.6,2,0.6h1.3c0.3,0,0.6-0.2,0.7-0.5l0.2-0.5H36l0.2,0.6c0.1,0.3,0.4,0.5,0.7,0.5h2.2
	c0.4,0,0.8-0.3,0.8-0.7c0,0,0,0,0,0v-0.7l0.7,1.1c0.1,0.2,0.4,0.4,0.6,0.4h1.5c0.4,0,0.8-0.3,0.8-0.8v-4.6
	C43.5,10.1,43.2,9.8,42.8,9.8z M18.6,15.1h-1.1v-3.6l-1.6,3.6h-1l-1.6-3.6v3.6h-2.2l-0.4-1H8.5l-0.4,1H6.9l1.9-4.6h1.6l1.9,4.3v-4.3
	H14l1.4,3.1l1.3-3.1h1.8V15.1z M23,11.5h-2.5v0.8H23v0.9h-2.5v0.9H23v0.9h-3.6v-4.6H23L23,11.5z M27.4,13c0.2,0.1,0.4,0.2,0.5,0.4
	c0.2,0.2,0.2,0.5,0.2,0.8v0.9H27v-0.6c0-0.3,0-0.6-0.2-0.9c-0.2-0.2-0.4-0.2-0.8-0.2h-1.2v1.7h-1.1v-4.6h2.5c0.5,0,0.9,0,1.3,0.2
	c0.4,0.2,0.6,0.6,0.6,1C28.2,12.3,27.9,12.8,27.4,13z M29.9,15.1h-1.1v-4.6h1.1L29.9,15.1z M42.8,15.1h-1.5l-2.1-3.4v3.4H37l-0.4-1
	h-2.3l-0.4,1h-1.3c-0.6,0-1.1-0.1-1.6-0.5c-0.4-0.5-0.6-1.1-0.6-1.7c-0.1-0.6,0.2-1.3,0.6-1.8c0.5-0.4,1.1-0.6,1.7-0.5h1v1h-1
	c-0.3,0-0.6,0.1-0.8,0.3c-0.2,0.3-0.3,0.7-0.3,1c0,0.4,0.1,0.8,0.3,1.1c0.2,0.2,0.5,0.3,0.8,0.2h0.5l1.5-3.6h1.6l1.8,4.3v-4.3h1.7
	l1.9,3.2v-3.2h1.1L42.8,15.1z M33.1,12.3l-0.5,1.1c-0.1,0-0.1,0-0.2,0c-0.1-0.2-0.1-0.3-0.1-0.5c0-0.2,0-0.3,0.1-0.5
	c0,0,0.1-0.1,0.3-0.1L33.1,12.3z"/>
<polygon class="st1" points="21.9,20.7 23.6,22.5 23.6,18.9 "/>
<polygon class="st1" points="19.3,19.3 16.6,19.3 16.6,20.2 19,20.2 19,21.1 16.6,21.1 16.6,22 19.3,22 20.5,20.7 "/>
</svg>
