<?xml version="1.0" encoding="utf-8"?>
<svg version="1.1" width="24" height="24" viewBox="0 0 24 24" fill="none" xmlns="http://www.w3.org/2000/svg">
<path d="M17.5878 12.6684C17.5871 11.9794 17.7475 11.2997 18.0563 10.6838C18.3651 10.0678 18.8136 9.53259 19.3661 9.12089C19.4149 9.08264 19.4554 9.03488 19.4852 8.98052C19.515 8.92616 19.5334 8.86632 19.5394 8.80462C19.5454 8.74293 19.5388 8.68065 19.5201 8.62157C19.5013 8.56249 19.4708 8.50783 19.4303 8.46089C19.0119 7.99662 18.5057 7.61985 17.9408 7.35238C17.376 7.0849 16.7637 6.93202 16.1395 6.90256C14.5903 6.75589 13.1145 7.81923 12.3261 7.81923C11.5378 7.81923 10.2545 6.90256 8.97112 6.90256C8.12169 6.92911 7.2938 7.17635 6.56892 7.61996C5.84404 8.06357 5.24714 8.68826 4.83695 9.43256C3.07695 12.4942 4.38779 16.9859 6.05612 19.4976C6.89029 20.7076 7.88945 22.0734 9.20945 22.0276C10.5295 21.9817 10.9511 21.2117 12.482 21.2117C14.0128 21.2117 14.4436 22.0276 15.782 22.0001C17.1203 21.9726 18.0461 20.7626 18.8895 19.5526C19.407 18.7914 19.8287 17.9694 20.1453 17.1051C20.1828 17.002 20.1822 16.889 20.1435 16.7864C20.1048 16.6838 20.0307 16.5985 19.9345 16.5459C19.2257 16.1765 18.632 15.6195 18.2182 14.9357C17.8044 14.252 17.5863 13.4676 17.5878 12.6684Z" fill="black"/>
<path d="M15.2218 4.30934C15.892 3.51146 16.2845 2.51731 16.3402 1.47684C16.343 1.40733 16.3299 1.33811 16.302 1.27439C16.2741 1.21068 16.232 1.15416 16.179 1.10911C16.126 1.06406 16.0635 1.03167 15.9961 1.01438C15.9287 0.997093 15.8583 0.995368 15.7902 1.00934C14.7929 1.23839 13.8922 1.77366 13.2143 2.54017C12.541 3.30627 12.1383 4.2726 12.0685 5.29017C12.0669 5.35518 12.0791 5.4198 12.1044 5.47972C12.1296 5.53965 12.1674 5.59351 12.2151 5.63773C12.2627 5.68195 12.3193 5.71551 12.381 5.73619C12.4426 5.75687 12.508 5.76419 12.5727 5.75767C13.6076 5.6288 14.5547 5.11099 15.2218 4.30934V4.30934Z" fill="black"/>
</svg>
