<?xml version="1.0" encoding="utf-8"?>
<!-- Generator: Adobe Illustrator 26.4.0, SVG Export Plug-In . SVG Version: 6.00 Build 0)  -->
<svg version="1.1" id="Ebene_1" xmlns="http://www.w3.org/2000/svg" xmlns:xlink="http://www.w3.org/1999/xlink" x="0px" y="0px"
	 width="53px" height="34px" viewBox="0 0 53 34" style="enable-background:new 0 0 53 34;" xml:space="preserve">
<style type="text/css">
	.st0{fill:#FFFFFF;stroke:#CDD4D8;}
	.st1{fill:#FF5F00;}
	.st2{fill:#F79E1B;}
	.st3{fill:#EB001B;}
</style>
<path class="st0" d="M6.5,0.5h40c3.3,0,6,2.7,6,6v21c0,3.3-2.7,6-6,6h-40c-3.3,0-6-2.7-6-6v-21C0.5,3.2,3.2,0.5,6.5,0.5z"/>
<polygon class="st1" points="30.7,24.7 22.1,24.7 22.1,9.3 30.7,9.3 "/>
<path class="st2" d="M42.3,17c0,5.4-4.4,9.8-9.9,9.8c-2.2,0-4.3-0.7-6-2.1c4.3-3.3,5-9.5,1.7-13.8c-0.5-0.6-1.1-1.2-1.7-1.7
	c4.3-3.3,10.5-2.6,13.8,1.7C41.6,12.7,42.3,14.8,42.3,17"/>
<path class="st3" d="M22.6,17c0-3,1.4-5.9,3.8-7.7C22.1,6,15.9,6.8,12.6,11c-3.3,4.2-2.6,10.3,1.6,13.7c3.6,2.8,8.6,2.8,12.2,0
	C24,22.9,22.6,20,22.6,17"/>
</svg>
