<?xml version="1.0" encoding="UTF-8"?><svg id="j" xmlns="http://www.w3.org/2000/svg" width="100" height="100" viewBox="0 0 100 100"><defs><style>.ad,.ae{stroke-linecap:round;stroke-linejoin:round;}.ad,.ae,.af{fill:none;}.ad,.af{stroke:#03181c;}.ae{stroke:#c39052;}.af{stroke-miterlimit:10;}</style></defs><g id="k"><g id="l"><path id="m" class="ad" d="M22.725,74.066l-17.83,1.584M24.286,25.351l43.92-3.897,.955,10.764M4.894,75.649L1.365,35.87l-.747-8.419,20.276-1.799"/><line class="ad" x1="9.061" y1="37.15" x2="19.209" y2="36.25"/><line class="ad" x1="9.768" y1="45.561" x2="17.857" y2="44.752"/><line class="ad" x1="10.464" y1="53.4" x2="16.569" y2="52.858"/><line class="ad" x1="11.159" y1="61.238" x2="15.32" y2="60.712"/></g><g id="n"><path class="ad" d="M69.835,81.174l-56.415-8.513m0,0l6.27-39.44,1.327-8.347,67.012,10.654-6.082,33.631"/><circle class="af" cx="35.578" cy="39.954" r="6.303"/><path class="ad" d="M73.822,72.941l-48.924-7.778,18.568-13.818,4.729,6.071,12.341-12.68,13.287,28.206Z"/></g><g><polygon class="ae" points="95.35 68.837 74.055 90.132 65.101 92.545 67.515 83.591 88.81 62.297 92.866 66.354 95.35 68.837"/><line class="ae" x1="67.515" y1="83.591" x2="74.055" y2="90.132"/><path class="ae" d="M88.81,62.297l3.413-3.413c1.27-1.27,3.989-.631,5.58,.96,1.591,1.591,2.231,4.309,.96,5.58l-3.413,3.413-6.54-6.54Z"/></g></g></svg>