<?xml version="1.0" encoding="UTF-8"?><svg id="p" xmlns="http://www.w3.org/2000/svg" width="100" height="100" viewBox="0 0 100 100"><defs><style>.ab{stroke-linejoin:round;}.ab,.ac{stroke-linecap:round;}.ab,.ac,.ad{fill:none;}.ab,.ad{stroke:#03181c;}.ac{stroke:#c39052;}.ac,.ad{stroke-miterlimit:10;}</style></defs><g id="u"><g id="v"><line class="ac" x1="24.961" y1="30.458" x2="24.961" y2="69.47"/><line class="ac" x1="5.423" y1="49.458" x2="44.499" y2="49.458"/></g><g><path class="ab" d="M61.136,49.029c.543,1.439-.199,3.04-1.656,3.576-1.458,.536-3.08-.196-3.623-1.635-.543-1.439,.199-3.04,1.657-3.576,1.458-.536,3.08,.196,3.623,1.635Z"/><path class="ab" d="M36.665,52.503c.928,7.829,6.162,14.878,14.16,17.82,11.373,4.18,24.026-1.528,28.262-12.751,4.236-11.225-1.549-23.712-12.921-27.893-11.371-4.181-24.025,1.528-28.261,12.751-.497,1.317-.856,2.651-1.084,3.987"/><line class="ab" x1="69.768" y1="38.872" x2="60.488" y2="48.033"/><line class="ab" x1="56.426" y1="48.113" x2="52.054" y2="43.453"/><path class="ab" d="M85.826,46.107h1.413c1.245,0,2.254,.996,2.254,2.225v3.337c0,1.229-1.009,2.225-2.254,2.225h-1.412c.386-2.62,.374-5.24,0-7.787Z"/><path class="ab" d="M31.117,46.453c.267-1.997,.765-3.997,1.508-5.965,1.157-3.065,2.814-5.803,4.845-8.158l4.682-15.147c1.159,.002,2.317,.004,3.476,.006v9.029c3.04-1.621,5.762-2.355,7.615-2.717,1.727-.337,7.866-1.359,14.819,1.226,1.422,.529,2.55,1.086,3.301,1.489v-9.041l3.476,.008,4.685,15.155c6.262,7.276,8.459,17.591,4.843,27.174-1.157,3.066-2.814,5.803-4.845,8.158l-4.682,15.146h-3.382c-.031-3.058-.063-6.117-.095-9.175-2.697,1.448-5.104,2.169-6.783,2.553-1.805,.413-7.893,1.609-14.913-.788-1.746-.596-3.123-1.269-4.04-1.763-.031,3.058-.063,6.115-.095,9.173h-3.381l-4.685-15.155c-2.155-5.038-4.31-10.076-6.465-15.115"/><g><path class="ab" d="M45.629,73.644c1.053,.564,2.154,1.065,3.301,1.497,7.645,2.877,15.754,2.086,22.434-1.499v25.859h-25.735v-25.856Z"/><circle class="ad" cx="58.496" cy="83.12" r=".505"/><circle class="ad" cx="58.496" cy="90.928" r=".505"/></g><g><path class="ab" d="M71.364,26.216c-1.053-.561-2.154-1.059-3.301-1.489-7.645-2.862-15.754-2.075-22.434,1.491V.5h25.735V26.216Z"/><circle class="ad" cx="58.496" cy="16.791" r=".505"/><circle class="ad" cx="58.496" cy="9.026" r=".505"/></g></g></g></svg>