<?xml version="1.0" encoding="utf-8"?>
<!-- Generator: Adobe Illustrator 26.4.0, SVG Export Plug-In . SVG Version: 6.00 Build 0)  -->
<svg version="1.1" id="Ebene_1" xmlns="http://www.w3.org/2000/svg" xmlns:xlink="http://www.w3.org/1999/xlink" x="0px" y="0px"
	 width="53px" height="34px" viewBox="0 0 53 34" style="enable-background:new 0 0 53 34;" xml:space="preserve">
<style type="text/css">
	.st0{fill:#FFFFFF;stroke:#CDD4D8;}
	.st1{fill:#00579F;}
</style>
<path class="st0" d="M6.5,0.5h40c3.3,0,6,2.7,6,6v21c0,3.3-2.7,6-6,6h-40c-3.3,0-6-2.7-6-6v-21C0.5,3.2,3.2,0.5,6.5,0.5z"/>
<path class="st1" d="M40.1,10.8c-0.6,0-1.1,0.4-1.4,0.9l-4.8,11.6h3.4l0.7-1.9h4.1l0.4,1.9h3l-2.6-12.5H40.1z M41.6,18.8h-2.7
	l1.7-4.7L41.6,18.8z"/>
<path class="st1" d="M34.1,19.2c0-3.3-4.6-3.5-4.5-5c0-0.4,0.4-0.9,1.4-1c1.1-0.1,2.2,0.1,3.2,0.6l0.6-2.6c-1-0.4-2-0.6-3-0.6
	c-3.2,0-5.4,1.7-5.5,4.1c0,1.8,1.6,2.8,2.8,3.4c1.3,0.6,1.7,1,1.7,1.6c0,0.8-1,1.2-1.9,1.2c-1.2,0-2.3-0.2-3.3-0.8L25,22.8
	c1.2,0.4,2.4,0.7,3.6,0.7C31.8,23.5,34.1,21.8,34.1,19.2z"/>
<path class="st1" d="M22.6,23.3l2.7-12.5h-3.2l-2.7,12.5H22.6z"/>
<path class="st1" d="M15.5,23.3l5.2-12.5h-3.4l-3.4,8.5L12.6,12c-0.1-0.7-0.7-1.3-1.5-1.3H5.6l-0.1,0.4c1.1,0.2,2.2,0.6,3.2,1.1
	c0.4,0.2,0.7,0.6,0.8,1.1l2.6,10H15.5z"/>
</svg>
